STARTFONT 2.1
FONT -classic-rockfont-medium-R-Normal--8-80-75-75-p-48-ISO10646-1
SIZE 8 75 75
FONTBOUNDINGBOX 9 8 0 0
STARTPROPERTIES 17
FONT_NAME "rockfontmedium"
FONT_ASCENT 8
FONT_DESCENT 0
QUAD_WIDTH 8
CAP_HEIGHT 7
FAMILY_NAME "rockfont"
FOUNDRY "classic"
WEIGHT_NAME "medium"
PIXEL_SIZE 8
POINT_SIZE 80
RESOLUTION 75
SPACING "p"
AVERAGE_WIDTH 48
FULL_NAME "rockfont medium"
COPYRIGHT "by Jens Arnold 08/2008 V2.1, based on work by Uwe Freese"
_GBDFED_INFO "Edited with gbdfed 1.3."
DEFAULT_CHAR 0
ENDPROPERTIES
CHARS 490
STARTCHAR U+0000
ENCODING 0
SWIDTH 720 0
DWIDTH 6 0
BBX 6 7 1 1
BITMAP
A8
00
88
00
88
00
A8
ENDCHAR
STARTCHAR U+0020
ENCODING 32
SWIDTH 480 0
DWIDTH 4 0
BBX 0 0 0 0
BITMAP
ENDCHAR
STARTCHAR U+0021
ENCODING 33
SWIDTH 240 0
DWIDTH 2 0
BBX 1 7 1 1
BITMAP
80
80
80
80
80
00
80
ENDCHAR
STARTCHAR U+0022
ENCODING 34
SWIDTH 480 0
DWIDTH 4 0
BBX 3 3 1 5
BITMAP
A0
A0
A0
ENDCHAR
STARTCHAR U+0023
ENCODING 35
SWIDTH 720 0
DWIDTH 6 0
BBX 5 6 1 1
BITMAP
50
F8
50
50
F8
50
ENDCHAR
STARTCHAR U+0024
ENCODING 36
SWIDTH 720 0
DWIDTH 6 0
BBX 5 7 1 1
BITMAP
20
78
A0
70
28
F0
20
ENDCHAR
STARTCHAR U+0025
ENCODING 37
SWIDTH 720 0
DWIDTH 6 0
BBX 5 7 1 1
BITMAP
C0
C8
10
20
40
98
18
ENDCHAR
STARTCHAR U+0026
ENCODING 38
SWIDTH 720 0
DWIDTH 6 0
BBX 5 7 1 1
BITMAP
60
90
A0
40
A8
90
68
ENDCHAR
STARTCHAR U+0027
ENCODING 39
SWIDTH 240 0
DWIDTH 2 0
BBX 1 3 1 5
BITMAP
80
80
80
ENDCHAR
STARTCHAR U+0028
ENCODING 40
SWIDTH 360 0
DWIDTH 3 0
BBX 2 7 1 1
BITMAP
40
80
80
80
80
80
40
ENDCHAR
STARTCHAR U+0029
ENCODING 41
SWIDTH 360 0
DWIDTH 3 0
BBX 2 7 1 1
BITMAP
80
40
40
40
40
40
80
ENDCHAR
STARTCHAR U+002A
ENCODING 42
SWIDTH 720 0
DWIDTH 6 0
BBX 5 5 1 1
BITMAP
50
20
F8
20
50
ENDCHAR
STARTCHAR U+002B
ENCODING 43
SWIDTH 720 0
DWIDTH 6 0
BBX 5 5 1 1
BITMAP
20
20
F8
20
20
ENDCHAR
STARTCHAR U+002C
ENCODING 44
SWIDTH 360 0
DWIDTH 3 0
BBX 2 3 1 0
BITMAP
40
40
80
ENDCHAR
STARTCHAR U+002D
ENCODING 45
SWIDTH 720 0
DWIDTH 6 0
BBX 5 1 1 3
BITMAP
F8
ENDCHAR
STARTCHAR U+002E
ENCODING 46
SWIDTH 240 0
DWIDTH 2 0
BBX 1 1 1 1
BITMAP
80
ENDCHAR
STARTCHAR U+002F
ENCODING 47
SWIDTH 600 0
DWIDTH 5 0
BBX 4 8 1 0
BITMAP
10
10
20
20
40
40
80
80
ENDCHAR
STARTCHAR U+0030
ENCODING 48
SWIDTH 600 0
DWIDTH 5 0
BBX 4 7 1 1
BITMAP
60
90
B0
D0
90
90
60
ENDCHAR
STARTCHAR U+0031
ENCODING 49
SWIDTH 600 0
DWIDTH 5 0
BBX 3 7 1 1
BITMAP
20
60
A0
20
20
20
20
ENDCHAR
STARTCHAR U+0032
ENCODING 50
SWIDTH 600 0
DWIDTH 5 0
BBX 4 7 1 1
BITMAP
60
90
10
60
80
80
F0
ENDCHAR
STARTCHAR U+0033
ENCODING 51
SWIDTH 600 0
DWIDTH 5 0
BBX 4 7 1 1
BITMAP
60
90
10
60
10
90
60
ENDCHAR
STARTCHAR U+0034
ENCODING 52
SWIDTH 600 0
DWIDTH 5 0
BBX 4 7 1 1
BITMAP
20
60
A0
A0
F0
20
20
ENDCHAR
STARTCHAR U+0035
ENCODING 53
SWIDTH 600 0
DWIDTH 5 0
BBX 4 7 1 1
BITMAP
F0
80
E0
90
10
90
60
ENDCHAR
STARTCHAR U+0036
ENCODING 54
SWIDTH 600 0
DWIDTH 5 0
BBX 4 7 1 1
BITMAP
60
90
80
E0
90
90
60
ENDCHAR
STARTCHAR U+0037
ENCODING 55
SWIDTH 600 0
DWIDTH 5 0
BBX 4 7 1 1
BITMAP
F0
10
10
20
20
40
40
ENDCHAR
STARTCHAR U+0038
ENCODING 56
SWIDTH 600 0
DWIDTH 5 0
BBX 4 7 1 1
BITMAP
60
90
90
60
90
90
60
ENDCHAR
STARTCHAR U+0039
ENCODING 57
SWIDTH 600 0
DWIDTH 5 0
BBX 4 7 1 1
BITMAP
60
90
90
70
10
90
60
ENDCHAR
STARTCHAR U+003A
ENCODING 58
SWIDTH 240 0
DWIDTH 2 0
BBX 1 5 1 1
BITMAP
80
00
00
00
80
ENDCHAR
STARTCHAR U+003B
ENCODING 59
SWIDTH 360 0
DWIDTH 3 0
BBX 2 6 1 0
BITMAP
40
00
00
40
40
80
ENDCHAR
STARTCHAR U+003C
ENCODING 60
SWIDTH 480 0
DWIDTH 4 0
BBX 3 5 1 1
BITMAP
20
40
80
40
20
ENDCHAR
STARTCHAR U+003D
ENCODING 61
SWIDTH 600 0
DWIDTH 5 0
BBX 4 3 1 2
BITMAP
F0
00
F0
ENDCHAR
STARTCHAR U+003E
ENCODING 62
SWIDTH 480 0
DWIDTH 4 0
BBX 3 5 1 1
BITMAP
80
40
20
40
80
ENDCHAR
STARTCHAR U+003F
ENCODING 63
SWIDTH 600 0
DWIDTH 5 0
BBX 4 7 1 1
BITMAP
60
90
10
60
40
00
40
ENDCHAR
STARTCHAR U+0040
ENCODING 64
SWIDTH 720 0
DWIDTH 6 0
BBX 5 6 1 1
BITMAP
70
88
B8
B0
80
70
ENDCHAR
STARTCHAR U+0041
ENCODING 65
SWIDTH 600 0
DWIDTH 5 0
BBX 4 7 1 1
BITMAP
60
90
90
F0
90
90
90
ENDCHAR
STARTCHAR U+0042
ENCODING 66
SWIDTH 600 0
DWIDTH 5 0
BBX 4 7 1 1
BITMAP
E0
90
90
E0
90
90
E0
ENDCHAR
STARTCHAR U+0043
ENCODING 67
SWIDTH 600 0
DWIDTH 5 0
BBX 4 7 1 1
BITMAP
60
90
80
80
80
90
60
ENDCHAR
STARTCHAR U+0044
ENCODING 68
SWIDTH 600 0
DWIDTH 5 0
BBX 4 7 1 1
BITMAP
E0
90
90
90
90
90
E0
ENDCHAR
STARTCHAR U+0045
ENCODING 69
SWIDTH 600 0
DWIDTH 5 0
BBX 4 7 1 1
BITMAP
F0
80
80
E0
80
80
F0
ENDCHAR
STARTCHAR U+0046
ENCODING 70
SWIDTH 600 0
DWIDTH 5 0
BBX 4 7 1 1
BITMAP
F0
80
80
E0
80
80
80
ENDCHAR
STARTCHAR U+0047
ENCODING 71
SWIDTH 600 0
DWIDTH 5 0
BBX 4 7 1 1
BITMAP
70
80
80
B0
90
90
70
ENDCHAR
STARTCHAR U+0048
ENCODING 72
SWIDTH 600 0
DWIDTH 5 0
BBX 4 7 1 1
BITMAP
90
90
90
F0
90
90
90
ENDCHAR
STARTCHAR U+0049
ENCODING 73
SWIDTH 480 0
DWIDTH 4 0
BBX 3 7 1 1
BITMAP
E0
40
40
40
40
40
E0
ENDCHAR
STARTCHAR U+004A
ENCODING 74
SWIDTH 600 0
DWIDTH 5 0
BBX 4 7 1 1
BITMAP
10
10
10
10
90
90
60
ENDCHAR
STARTCHAR U+004B
ENCODING 75
SWIDTH 600 0
DWIDTH 5 0
BBX 4 7 1 1
BITMAP
90
90
A0
C0
A0
90
90
ENDCHAR
STARTCHAR U+004C
ENCODING 76
SWIDTH 600 0
DWIDTH 5 0
BBX 4 7 1 1
BITMAP
80
80
80
80
80
80
F0
ENDCHAR
STARTCHAR U+004D
ENCODING 77
SWIDTH 720 0
DWIDTH 6 0
BBX 5 7 1 1
BITMAP
88
D8
D8
A8
A8
88
88
ENDCHAR
STARTCHAR U+004E
ENCODING 78
SWIDTH 600 0
DWIDTH 5 0
BBX 4 7 1 1
BITMAP
90
D0
D0
B0
B0
90
90
ENDCHAR
STARTCHAR U+004F
ENCODING 79
SWIDTH 600 0
DWIDTH 5 0
BBX 4 7 1 1
BITMAP
60
90
90
90
90
90
60
ENDCHAR
STARTCHAR U+0050
ENCODING 80
SWIDTH 600 0
DWIDTH 5 0
BBX 4 7 1 1
BITMAP
E0
90
90
E0
80
80
80
ENDCHAR
STARTCHAR U+0051
ENCODING 81
SWIDTH 720 0
DWIDTH 6 0
BBX 5 7 1 1
BITMAP
60
90
90
90
B0
90
68
ENDCHAR
STARTCHAR U+0052
ENCODING 82
SWIDTH 600 0
DWIDTH 5 0
BBX 4 7 1 1
BITMAP
E0
90
90
E0
A0
90
90
ENDCHAR
STARTCHAR U+0053
ENCODING 83
SWIDTH 600 0
DWIDTH 5 0
BBX 4 7 1 1
BITMAP
60
90
80
60
10
90
60
ENDCHAR
STARTCHAR U+0054
ENCODING 84
SWIDTH 720 0
DWIDTH 6 0
BBX 5 7 1 1
BITMAP
F8
20
20
20
20
20
20
ENDCHAR
STARTCHAR U+0055
ENCODING 85
SWIDTH 600 0
DWIDTH 5 0
BBX 4 7 1 1
BITMAP
90
90
90
90
90
90
60
ENDCHAR
STARTCHAR U+0056
ENCODING 86
SWIDTH 720 0
DWIDTH 6 0
BBX 5 7 1 1
BITMAP
88
88
88
88
50
50
20
ENDCHAR
STARTCHAR U+0057
ENCODING 87
SWIDTH 720 0
DWIDTH 6 0
BBX 5 7 1 1
BITMAP
88
88
88
A8
A8
A8
50
ENDCHAR
STARTCHAR U+0058
ENCODING 88
SWIDTH 720 0
DWIDTH 6 0
BBX 5 7 1 1
BITMAP
88
88
50
20
50
88
88
ENDCHAR
STARTCHAR U+0059
ENCODING 89
SWIDTH 720 0
DWIDTH 6 0
BBX 5 7 1 1
BITMAP
88
88
88
50
20
20
20
ENDCHAR
STARTCHAR U+005A
ENCODING 90
SWIDTH 720 0
DWIDTH 6 0
BBX 5 7 1 1
BITMAP
F8
08
10
20
40
80
F8
ENDCHAR
STARTCHAR U+005B
ENCODING 91
SWIDTH 360 0
DWIDTH 3 0
BBX 2 7 1 1
BITMAP
C0
80
80
80
80
80
C0
ENDCHAR
STARTCHAR U+005C
ENCODING 92
SWIDTH 600 0
DWIDTH 5 0
BBX 4 8 1 0
BITMAP
80
80
40
40
20
20
10
10
ENDCHAR
STARTCHAR U+005D
ENCODING 93
SWIDTH 360 0
DWIDTH 3 0
BBX 2 7 1 1
BITMAP
C0
40
40
40
40
40
C0
ENDCHAR
STARTCHAR U+005E
ENCODING 94
SWIDTH 720 0
DWIDTH 6 0
BBX 5 3 1 5
BITMAP
20
50
88
ENDCHAR
STARTCHAR U+005F
ENCODING 95
SWIDTH 720 0
DWIDTH 6 0
BBX 5 1 1 0
BITMAP
F8
ENDCHAR
STARTCHAR U+0060
ENCODING 96
SWIDTH 360 0
DWIDTH 3 0
BBX 2 3 1 5
BITMAP
80
80
40
ENDCHAR
STARTCHAR U+0061
ENCODING 97
SWIDTH 600 0
DWIDTH 5 0
BBX 4 5 1 1
BITMAP
60
10
70
90
70
ENDCHAR
STARTCHAR U+0062
ENCODING 98
SWIDTH 600 0
DWIDTH 5 0
BBX 4 7 1 1
BITMAP
80
80
E0
90
90
90
E0
ENDCHAR
STARTCHAR U+0063
ENCODING 99
SWIDTH 480 0
DWIDTH 4 0
BBX 3 5 1 1
BITMAP
60
80
80
80
60
ENDCHAR
STARTCHAR U+0064
ENCODING 100
SWIDTH 600 0
DWIDTH 5 0
BBX 4 7 1 1
BITMAP
10
10
70
90
90
90
70
ENDCHAR
STARTCHAR U+0065
ENCODING 101
SWIDTH 600 0
DWIDTH 5 0
BBX 4 5 1 1
BITMAP
60
90
F0
80
70
ENDCHAR
STARTCHAR U+0066
ENCODING 102
SWIDTH 600 0
DWIDTH 5 0
BBX 4 7 1 1
BITMAP
30
40
E0
40
40
40
40
ENDCHAR
STARTCHAR U+0067
ENCODING 103
SWIDTH 600 0
DWIDTH 5 0
BBX 4 6 1 0
BITMAP
70
90
90
70
10
60
ENDCHAR
STARTCHAR U+0068
ENCODING 104
SWIDTH 600 0
DWIDTH 5 0
BBX 4 7 1 1
BITMAP
80
80
E0
90
90
90
90
ENDCHAR
STARTCHAR U+0069
ENCODING 105
SWIDTH 360 0
DWIDTH 3 0
BBX 2 7 1 1
BITMAP
80
00
80
80
80
80
40
ENDCHAR
STARTCHAR U+006A
ENCODING 106
SWIDTH 480 0
DWIDTH 4 0
BBX 3 8 1 0
BITMAP
20
00
20
20
20
20
A0
40
ENDCHAR
STARTCHAR U+006B
ENCODING 107
SWIDTH 600 0
DWIDTH 5 0
BBX 4 7 1 1
BITMAP
80
80
90
A0
C0
A0
90
ENDCHAR
STARTCHAR U+006C
ENCODING 108
SWIDTH 360 0
DWIDTH 3 0
BBX 2 7 1 1
BITMAP
80
80
80
80
80
80
40
ENDCHAR
STARTCHAR U+006D
ENCODING 109
SWIDTH 720 0
DWIDTH 6 0
BBX 5 5 1 1
BITMAP
D0
A8
A8
A8
A8
ENDCHAR
STARTCHAR U+006E
ENCODING 110
SWIDTH 600 0
DWIDTH 5 0
BBX 4 5 1 1
BITMAP
E0
90
90
90
90
ENDCHAR
STARTCHAR U+006F
ENCODING 111
SWIDTH 600 0
DWIDTH 5 0
BBX 4 5 1 1
BITMAP
60
90
90
90
60
ENDCHAR
STARTCHAR U+0070
ENCODING 112
SWIDTH 600 0
DWIDTH 5 0
BBX 4 6 1 0
BITMAP
E0
90
90
E0
80
80
ENDCHAR
STARTCHAR U+0071
ENCODING 113
SWIDTH 600 0
DWIDTH 5 0
BBX 4 6 1 0
BITMAP
70
90
90
70
10
10
ENDCHAR
STARTCHAR U+0072
ENCODING 114
SWIDTH 480 0
DWIDTH 4 0
BBX 3 5 1 1
BITMAP
A0
C0
80
80
80
ENDCHAR
STARTCHAR U+0073
ENCODING 115
SWIDTH 600 0
DWIDTH 5 0
BBX 4 5 1 1
BITMAP
60
80
60
10
E0
ENDCHAR
STARTCHAR U+0074
ENCODING 116
SWIDTH 480 0
DWIDTH 4 0
BBX 3 7 1 1
BITMAP
40
40
E0
40
40
40
20
ENDCHAR
STARTCHAR U+0075
ENCODING 117
SWIDTH 600 0
DWIDTH 5 0
BBX 4 5 1 1
BITMAP
90
90
90
90
70
ENDCHAR
STARTCHAR U+0076
ENCODING 118
SWIDTH 720 0
DWIDTH 6 0
BBX 5 5 1 1
BITMAP
88
88
50
50
20
ENDCHAR
STARTCHAR U+0077
ENCODING 119
SWIDTH 720 0
DWIDTH 6 0
BBX 5 5 1 1
BITMAP
88
88
A8
A8
50
ENDCHAR
STARTCHAR U+0078
ENCODING 120
SWIDTH 480 0
DWIDTH 4 0
BBX 3 5 1 1
BITMAP
A0
A0
40
A0
A0
ENDCHAR
STARTCHAR U+0079
ENCODING 121
SWIDTH 600 0
DWIDTH 5 0
BBX 4 6 1 0
BITMAP
90
90
90
70
10
60
ENDCHAR
STARTCHAR U+007A
ENCODING 122
SWIDTH 480 0
DWIDTH 4 0
BBX 3 5 1 1
BITMAP
E0
20
40
80
E0
ENDCHAR
STARTCHAR U+007B
ENCODING 123
SWIDTH 480 0
DWIDTH 4 0
BBX 3 7 1 1
BITMAP
20
40
40
80
40
40
20
ENDCHAR
STARTCHAR U+007C
ENCODING 124
SWIDTH 240 0
DWIDTH 2 0
BBX 1 8 1 0
BITMAP
80
80
80
80
80
80
80
80
ENDCHAR
STARTCHAR U+007D
ENCODING 125
SWIDTH 480 0
DWIDTH 4 0
BBX 3 7 1 1
BITMAP
80
40
40
20
40
40
80
ENDCHAR
STARTCHAR U+007E
ENCODING 126
SWIDTH 720 0
DWIDTH 6 0
BBX 5 2 1 6
BITMAP
68
B0
ENDCHAR
STARTCHAR U+00A0
ENCODING 160
SWIDTH 480 0
DWIDTH 4 0
BBX 0 0 0 0
BITMAP
ENDCHAR
STARTCHAR U+00A1
ENCODING 161
SWIDTH 240 0
DWIDTH 2 0
BBX 1 7 1 1
BITMAP
80
00
80
80
80
80
80
ENDCHAR
STARTCHAR U+00A2
ENCODING 162
SWIDTH 720 0
DWIDTH 6 0
BBX 5 7 1 0
BITMAP
20
70
A8
A0
A8
70
20
ENDCHAR
STARTCHAR U+00A3
ENCODING 163
SWIDTH 720 0
DWIDTH 6 0
BBX 5 7 1 1
BITMAP
30
48
40
F0
40
40
F8
ENDCHAR
STARTCHAR U+00A4
ENCODING 164
SWIDTH 600 0
DWIDTH 5 0
BBX 4 7 1 1
BITMAP
30
40
E0
40
E0
40
30
ENDCHAR
STARTCHAR U+00A5
ENCODING 165
SWIDTH 720 0
DWIDTH 6 0
BBX 5 7 1 1
BITMAP
88
88
50
20
70
20
20
ENDCHAR
STARTCHAR U+00A6
ENCODING 166
SWIDTH 240 0
DWIDTH 2 0
BBX 1 7 1 1
BITMAP
80
80
80
00
80
80
80
ENDCHAR
STARTCHAR U+00A7
ENCODING 167
SWIDTH 600 0
DWIDTH 5 0
BBX 4 7 1 1
BITMAP
70
80
60
90
60
10
E0
ENDCHAR
STARTCHAR U+00A8
ENCODING 168
SWIDTH 600 0
DWIDTH 5 0
BBX 4 1 1 7
BITMAP
90
ENDCHAR
STARTCHAR U+00A9
ENCODING 169
SWIDTH 840 0
DWIDTH 7 0
BBX 6 7 1 1
BITMAP
78
84
B4
A4
B4
84
78
ENDCHAR
STARTCHAR U+00AA
ENCODING 170
SWIDTH 480 0
DWIDTH 4 0
BBX 3 5 1 3
BITMAP
60
A0
E0
00
E0
ENDCHAR
STARTCHAR U+00AB
ENCODING 171
SWIDTH 720 0
DWIDTH 6 0
BBX 5 5 1 1
BITMAP
28
50
A0
50
28
ENDCHAR
STARTCHAR U+00AC
ENCODING 172
SWIDTH 600 0
DWIDTH 5 0
BBX 4 2 1 6
BITMAP
F0
10
ENDCHAR
STARTCHAR U+00AD
ENCODING 173
SWIDTH 720 0
DWIDTH 6 0
BBX 5 1 1 3
BITMAP
F8
ENDCHAR
STARTCHAR U+00AE
ENCODING 174
SWIDTH 840 0
DWIDTH 7 0
BBX 6 7 1 1
BITMAP
78
84
B4
B4
AC
84
78
ENDCHAR
STARTCHAR U+00AF
ENCODING 175
SWIDTH 720 0
DWIDTH 6 0
BBX 5 1 1 7
BITMAP
F8
ENDCHAR
STARTCHAR U+00B0
ENCODING 176
SWIDTH 480 0
DWIDTH 4 0
BBX 3 3 1 5
BITMAP
40
A0
40
ENDCHAR
STARTCHAR U+00B1
ENCODING 177
SWIDTH 480 0
DWIDTH 4 0
BBX 3 5 1 1
BITMAP
40
E0
40
00
E0
ENDCHAR
STARTCHAR U+00B2
ENCODING 178
SWIDTH 600 0
DWIDTH 5 0
BBX 3 4 1 4
BITMAP
C0
20
40
E0
ENDCHAR
STARTCHAR U+00B3
ENCODING 179
SWIDTH 480 0
DWIDTH 4 0
BBX 3 4 1 4
BITMAP
E0
40
20
C0
ENDCHAR
STARTCHAR U+00B4
ENCODING 180
SWIDTH 360 0
DWIDTH 3 0
BBX 2 2 1 6
BITMAP
40
80
ENDCHAR
STARTCHAR U+00B5
ENCODING 181
SWIDTH 600 0
DWIDTH 5 0
BBX 4 6 1 0
BITMAP
90
90
90
D0
A0
80
ENDCHAR
STARTCHAR U+00B6
ENCODING 182
SWIDTH 720 0
DWIDTH 6 0
BBX 5 8 1 0
BITMAP
78
E8
E8
68
28
28
28
28
ENDCHAR
STARTCHAR U+00B7
ENCODING 183
SWIDTH 360 0
DWIDTH 3 0
BBX 2 2 1 3
BITMAP
C0
C0
ENDCHAR
STARTCHAR U+00B8
ENCODING 184
SWIDTH 360 0
DWIDTH 3 0
BBX 2 2 1 0
BITMAP
40
80
ENDCHAR
STARTCHAR U+00B9
ENCODING 185
SWIDTH 360 0
DWIDTH 3 0
BBX 2 4 1 4
BITMAP
40
C0
40
40
ENDCHAR
STARTCHAR U+00BA
ENCODING 186
SWIDTH 480 0
DWIDTH 4 0
BBX 3 5 1 3
BITMAP
40
A0
40
00
E0
ENDCHAR
STARTCHAR U+00BB
ENCODING 187
SWIDTH 720 0
DWIDTH 6 0
BBX 5 5 1 1
BITMAP
A0
50
28
50
A0
ENDCHAR
STARTCHAR U+00BC
ENCODING 188
SWIDTH 840 0
DWIDTH 7 0
BBX 6 7 1 1
BITMAP
44
C8
50
54
28
5C
84
ENDCHAR
STARTCHAR U+00BD
ENCODING 189
SWIDTH 960 0
DWIDTH 8 0
BBX 7 7 1 1
BITMAP
44
C8
50
6C
22
44
8E
ENDCHAR
STARTCHAR U+00BE
ENCODING 190
SWIDTH 840 0
DWIDTH 7 0
BBX 6 7 1 1
BITMAP
E4
48
30
D4
28
5C
84
ENDCHAR
STARTCHAR U+00BF
ENCODING 191
SWIDTH 600 0
DWIDTH 5 0
BBX 4 7 1 1
BITMAP
20
00
20
60
80
90
60
ENDCHAR
STARTCHAR U+00C0
ENCODING 192
SWIDTH 600 0
DWIDTH 5 0
BBX 4 7 1 1
BITMAP
40
20
60
90
F0
90
90
ENDCHAR
STARTCHAR U+00C1
ENCODING 193
SWIDTH 600 0
DWIDTH 5 0
BBX 4 7 1 1
BITMAP
20
40
60
90
F0
90
90
ENDCHAR
STARTCHAR U+00C2
ENCODING 194
SWIDTH 600 0
DWIDTH 5 0
BBX 4 7 1 1
BITMAP
60
90
60
90
F0
90
90
ENDCHAR
STARTCHAR U+00C3
ENCODING 195
SWIDTH 600 0
DWIDTH 5 0
BBX 4 7 1 1
BITMAP
50
A0
60
90
F0
90
90
ENDCHAR
STARTCHAR U+00C4
ENCODING 196
SWIDTH 600 0
DWIDTH 5 0
BBX 4 7 1 1
BITMAP
90
60
90
90
F0
90
90
ENDCHAR
STARTCHAR U+00C5
ENCODING 197
SWIDTH 600 0
DWIDTH 5 0
BBX 4 7 1 1
BITMAP
60
90
60
90
F0
90
90
ENDCHAR
STARTCHAR U+00C6
ENCODING 198
SWIDTH 960 0
DWIDTH 8 0
BBX 7 7 1 1
BITMAP
3E
50
50
7C
90
90
9E
ENDCHAR
STARTCHAR U+00C7
ENCODING 199
SWIDTH 840 0
DWIDTH 7 0
BBX 4 8 1 0
BITMAP
60
90
80
80
90
60
20
40
ENDCHAR
STARTCHAR U+00C8
ENCODING 200
SWIDTH 600 0
DWIDTH 5 0
BBX 4 7 1 1
BITMAP
40
20
F0
80
E0
80
F0
ENDCHAR
STARTCHAR U+00C9
ENCODING 201
SWIDTH 600 0
DWIDTH 5 0
BBX 4 7 1 1
BITMAP
20
40
F0
80
E0
80
F0
ENDCHAR
STARTCHAR U+00CA
ENCODING 202
SWIDTH 600 0
DWIDTH 5 0
BBX 4 7 1 1
BITMAP
40
A0
F0
80
E0
80
F0
ENDCHAR
STARTCHAR U+00CB
ENCODING 203
SWIDTH 600 0
DWIDTH 5 0
BBX 4 7 1 1
BITMAP
90
00
F0
80
E0
80
F0
ENDCHAR
STARTCHAR U+00CC
ENCODING 204
SWIDTH 480 0
DWIDTH 4 0
BBX 3 7 1 1
BITMAP
80
40
E0
40
40
40
E0
ENDCHAR
STARTCHAR U+00CD
ENCODING 205
SWIDTH 480 0
DWIDTH 4 0
BBX 3 7 1 1
BITMAP
20
40
E0
40
40
40
E0
ENDCHAR
STARTCHAR U+00CE
ENCODING 206
SWIDTH 480 0
DWIDTH 4 0
BBX 3 7 1 1
BITMAP
40
A0
E0
40
40
40
E0
ENDCHAR
STARTCHAR U+00CF
ENCODING 207
SWIDTH 480 0
DWIDTH 4 0
BBX 3 7 1 1
BITMAP
A0
00
E0
40
40
40
E0
ENDCHAR
STARTCHAR U+00D0
ENCODING 208
SWIDTH 720 0
DWIDTH 6 0
BBX 5 7 1 1
BITMAP
70
48
48
E8
48
48
70
ENDCHAR
STARTCHAR U+00D1
ENCODING 209
SWIDTH 600 0
DWIDTH 5 0
BBX 4 7 1 1
BITMAP
50
A0
90
D0
B0
90
90
ENDCHAR
STARTCHAR U+00D2
ENCODING 210
SWIDTH 600 0
DWIDTH 5 0
BBX 4 7 1 1
BITMAP
40
20
60
90
90
90
60
ENDCHAR
STARTCHAR U+00D3
ENCODING 211
SWIDTH 600 0
DWIDTH 5 0
BBX 4 7 1 1
BITMAP
20
40
60
90
90
90
60
ENDCHAR
STARTCHAR U+00D4
ENCODING 212
SWIDTH 600 0
DWIDTH 5 0
BBX 4 7 1 1
BITMAP
60
90
60
90
90
90
60
ENDCHAR
STARTCHAR U+00D5
ENCODING 213
SWIDTH 600 0
DWIDTH 5 0
BBX 4 7 1 1
BITMAP
50
A0
60
90
90
90
60
ENDCHAR
STARTCHAR U+00D6
ENCODING 214
SWIDTH 600 0
DWIDTH 5 0
BBX 4 7 1 1
BITMAP
90
60
90
90
90
90
60
ENDCHAR
STARTCHAR U+00D7
ENCODING 215
SWIDTH 720 0
DWIDTH 6 0
BBX 5 5 1 1
BITMAP
88
50
20
50
88
ENDCHAR
STARTCHAR U+00D8
ENCODING 216
SWIDTH 720 0
DWIDTH 6 0
BBX 5 8 1 0
BITMAP
08
70
98
A8
A8
C8
70
80
ENDCHAR
STARTCHAR U+00D9
ENCODING 217
SWIDTH 600 0
DWIDTH 5 0
BBX 4 7 1 1
BITMAP
40
20
90
90
90
90
60
ENDCHAR
STARTCHAR U+00DA
ENCODING 218
SWIDTH 600 0
DWIDTH 5 0
BBX 4 7 1 1
BITMAP
20
40
90
90
90
90
60
ENDCHAR
STARTCHAR U+00DB
ENCODING 219
SWIDTH 600 0
DWIDTH 5 0
BBX 4 7 1 1
BITMAP
60
90
00
90
90
90
60
ENDCHAR
STARTCHAR U+00DC
ENCODING 220
SWIDTH 600 0
DWIDTH 5 0
BBX 4 7 1 1
BITMAP
90
00
90
90
90
90
60
ENDCHAR
STARTCHAR U+00DD
ENCODING 221
SWIDTH 720 0
DWIDTH 6 0
BBX 5 7 1 1
BITMAP
10
20
88
88
50
20
20
ENDCHAR
STARTCHAR U+00DE
ENCODING 222
SWIDTH 600 0
DWIDTH 5 0
BBX 4 7 1 1
BITMAP
80
E0
90
90
E0
80
80
ENDCHAR
STARTCHAR U+00DF
ENCODING 223
SWIDTH 600 0
DWIDTH 5 0
BBX 4 8 1 0
BITMAP
60
90
90
A0
90
90
A0
80
ENDCHAR
STARTCHAR U+00E0
ENCODING 224
SWIDTH 600 0
DWIDTH 5 0
BBX 4 7 1 1
BITMAP
40
20
60
10
70
90
70
ENDCHAR
STARTCHAR U+00E1
ENCODING 225
SWIDTH 600 0
DWIDTH 5 0
BBX 4 7 1 1
BITMAP
20
40
60
10
70
90
70
ENDCHAR
STARTCHAR U+00E2
ENCODING 226
SWIDTH 600 0
DWIDTH 5 0
BBX 4 7 1 1
BITMAP
20
50
60
10
70
90
70
ENDCHAR
STARTCHAR U+00E3
ENCODING 227
SWIDTH 600 0
DWIDTH 5 0
BBX 4 7 1 1
BITMAP
50
A0
60
10
70
90
70
ENDCHAR
STARTCHAR U+00E4
ENCODING 228
SWIDTH 600 0
DWIDTH 5 0
BBX 4 7 1 1
BITMAP
50
00
60
10
70
90
70
ENDCHAR
STARTCHAR U+00E5
ENCODING 229
SWIDTH 600 0
DWIDTH 5 0
BBX 4 7 1 1
BITMAP
60
90
60
10
70
90
70
ENDCHAR
STARTCHAR U+00E6
ENCODING 230
SWIDTH 960 0
DWIDTH 8 0
BBX 7 5 1 1
BITMAP
6C
12
7C
90
7C
ENDCHAR
STARTCHAR U+00E7
ENCODING 231
SWIDTH 600 0
DWIDTH 5 0
BBX 4 6 1 0
BITMAP
70
80
80
70
20
40
ENDCHAR
STARTCHAR U+00E8
ENCODING 232
SWIDTH 600 0
DWIDTH 5 0
BBX 4 7 1 1
BITMAP
40
20
60
90
F0
80
70
ENDCHAR
STARTCHAR U+00E9
ENCODING 233
SWIDTH 600 0
DWIDTH 5 0
BBX 4 7 1 1
BITMAP
20
40
60
90
F0
80
70
ENDCHAR
STARTCHAR U+00EA
ENCODING 234
SWIDTH 600 0
DWIDTH 5 0
BBX 4 7 1 1
BITMAP
20
50
60
90
F0
80
70
ENDCHAR
STARTCHAR U+00EB
ENCODING 235
SWIDTH 600 0
DWIDTH 5 0
BBX 4 7 1 1
BITMAP
90
00
60
90
F0
80
70
ENDCHAR
STARTCHAR U+00EC
ENCODING 236
SWIDTH 360 0
DWIDTH 3 0
BBX 2 7 1 1
BITMAP
80
40
00
80
80
80
40
ENDCHAR
STARTCHAR U+00ED
ENCODING 237
SWIDTH 360 0
DWIDTH 3 0
BBX 2 7 1 1
BITMAP
40
80
00
80
80
80
40
ENDCHAR
STARTCHAR U+00EE
ENCODING 238
SWIDTH 480 0
DWIDTH 4 0
BBX 3 7 1 1
BITMAP
40
A0
00
40
40
40
20
ENDCHAR
STARTCHAR U+00EF
ENCODING 239
SWIDTH 480 0
DWIDTH 4 0
BBX 3 7 1 1
BITMAP
A0
00
40
40
40
40
20
ENDCHAR
STARTCHAR U+00F0
ENCODING 240
SWIDTH 600 0
DWIDTH 5 0
BBX 4 7 1 1
BITMAP
A0
C0
20
70
90
90
60
ENDCHAR
STARTCHAR U+00F1
ENCODING 241
SWIDTH 600 0
DWIDTH 5 0
BBX 4 7 1 1
BITMAP
50
A0
00
E0
90
90
90
ENDCHAR
STARTCHAR U+00F2
ENCODING 242
SWIDTH 600 0
DWIDTH 5 0
BBX 4 7 1 1
BITMAP
40
20
00
60
90
90
60
ENDCHAR
STARTCHAR U+00F3
ENCODING 243
SWIDTH 600 0
DWIDTH 5 0
BBX 4 7 1 1
BITMAP
20
40
00
60
90
90
60
ENDCHAR
STARTCHAR U+00F4
ENCODING 244
SWIDTH 600 0
DWIDTH 5 0
BBX 4 7 1 1
BITMAP
20
50
00
60
90
90
60
ENDCHAR
STARTCHAR U+00F5
ENCODING 245
SWIDTH 600 0
DWIDTH 5 0
BBX 4 7 1 1
BITMAP
50
A0
00
60
90
90
60
ENDCHAR
STARTCHAR U+00F6
ENCODING 246
SWIDTH 600 0
DWIDTH 5 0
BBX 4 7 1 1
BITMAP
90
00
60
90
90
90
60
ENDCHAR
STARTCHAR U+00F7
ENCODING 247
SWIDTH 720 0
DWIDTH 6 0
BBX 5 5 1 1
BITMAP
20
00
F8
00
20
ENDCHAR
STARTCHAR U+00F8
ENCODING 248
SWIDTH 720 0
DWIDTH 6 0
BBX 5 7 1 0
BITMAP
08
70
98
A8
C8
70
80
ENDCHAR
STARTCHAR U+00F9
ENCODING 249
SWIDTH 600 0
DWIDTH 5 0
BBX 4 7 1 1
BITMAP
40
20
90
90
90
90
70
ENDCHAR
STARTCHAR U+00FA
ENCODING 250
SWIDTH 600 0
DWIDTH 5 0
BBX 4 7 1 1
BITMAP
20
40
90
90
90
90
70
ENDCHAR
STARTCHAR U+00FB
ENCODING 251
SWIDTH 600 0
DWIDTH 5 0
BBX 4 7 1 1
BITMAP
20
50
00
90
90
90
70
ENDCHAR
STARTCHAR U+00FC
ENCODING 252
SWIDTH 600 0
DWIDTH 5 0
BBX 4 7 1 1
BITMAP
90
00
90
90
90
90
70
ENDCHAR
STARTCHAR U+00FD
ENCODING 253
SWIDTH 600 0
DWIDTH 5 0
BBX 4 8 1 0
BITMAP
40
20
90
90
90
70
10
60
ENDCHAR
STARTCHAR U+00FE
ENCODING 254
SWIDTH 600 0
DWIDTH 5 0
BBX 4 7 1 0
BITMAP
80
E0
90
90
E0
80
80
ENDCHAR
STARTCHAR U+00FF
ENCODING 255
SWIDTH 600 0
DWIDTH 5 0
BBX 4 8 1 0
BITMAP
90
00
90
90
90
70
10
60
ENDCHAR
STARTCHAR U+0100
ENCODING 256
SWIDTH 600 0
DWIDTH 5 0
BBX 4 7 1 1
BITMAP
F0
00
60
90
F0
90
90
ENDCHAR
STARTCHAR U+0101
ENCODING 257
SWIDTH 600 0
DWIDTH 5 0
BBX 4 7 1 1
BITMAP
70
00
60
10
70
90
70
ENDCHAR
STARTCHAR U+0102
ENCODING 258
SWIDTH 600 0
DWIDTH 5 0
BBX 4 7 1 1
BITMAP
90
60
60
90
F0
90
90
ENDCHAR
STARTCHAR U+0103
ENCODING 259
SWIDTH 600 0
DWIDTH 5 0
BBX 4 7 1 1
BITMAP
50
20
60
10
70
90
70
ENDCHAR
STARTCHAR U+0104
ENCODING 260
SWIDTH 600 0
DWIDTH 5 0
BBX 4 8 1 0
BITMAP
60
90
90
F0
90
90
20
30
ENDCHAR
STARTCHAR U+0105
ENCODING 261
SWIDTH 600 0
DWIDTH 5 0
BBX 4 6 1 0
BITMAP
E0
70
90
70
20
30
ENDCHAR
STARTCHAR U+0106
ENCODING 262
SWIDTH 600 0
DWIDTH 5 0
BBX 4 7 1 1
BITMAP
20
40
60
90
80
90
60
ENDCHAR
STARTCHAR U+0107
ENCODING 263
SWIDTH 480 0
DWIDTH 4 0
BBX 3 7 1 1
BITMAP
20
40
60
80
80
80
60
ENDCHAR
STARTCHAR U+0108
ENCODING 264
SWIDTH 600 0
DWIDTH 5 0
BBX 4 7 1 1
BITMAP
60
90
60
90
80
90
60
ENDCHAR
STARTCHAR U+0109
ENCODING 265
SWIDTH 480 0
DWIDTH 4 0
BBX 3 7 1 1
BITMAP
40
A0
60
80
80
80
60
ENDCHAR
STARTCHAR U+010A
ENCODING 266
SWIDTH 600 0
DWIDTH 5 0
BBX 4 7 1 1
BITMAP
20
00
60
90
80
90
60
ENDCHAR
STARTCHAR U+010B
ENCODING 267
SWIDTH 480 0
DWIDTH 4 0
BBX 3 7 1 1
BITMAP
40
00
60
80
80
80
60
ENDCHAR
STARTCHAR U+010C
ENCODING 268
SWIDTH 600 0
DWIDTH 5 0
BBX 4 7 1 1
BITMAP
90
60
60
90
80
90
60
ENDCHAR
STARTCHAR U+010D
ENCODING 269
SWIDTH 480 0
DWIDTH 4 0
BBX 3 7 1 1
BITMAP
A0
40
60
80
80
80
60
ENDCHAR
STARTCHAR U+010E
ENCODING 270
SWIDTH 600 0
DWIDTH 5 0
BBX 4 7 1 1
BITMAP
90
60
E0
90
90
90
E0
ENDCHAR
STARTCHAR U+010F
ENCODING 271
SWIDTH 720 0
DWIDTH 6 0
BBX 5 7 1 1
BITMAP
28
28
68
A0
A0
A0
60
ENDCHAR
STARTCHAR U+0110
ENCODING 272
SWIDTH 720 0
DWIDTH 6 0
BBX 5 7 1 1
BITMAP
70
48
48
E8
48
48
70
ENDCHAR
STARTCHAR U+0111
ENCODING 273
SWIDTH 720 0
DWIDTH 6 0
BBX 5 7 1 1
BITMAP
10
38
10
70
90
90
70
ENDCHAR
STARTCHAR U+0112
ENCODING 274
SWIDTH 600 0
DWIDTH 5 0
BBX 4 7 1 1
BITMAP
E0
00
F0
80
E0
80
F0
ENDCHAR
STARTCHAR U+0113
ENCODING 275
SWIDTH 600 0
DWIDTH 5 0
BBX 4 7 1 1
BITMAP
70
00
60
90
F0
80
70
ENDCHAR
STARTCHAR U+0114
ENCODING 276
SWIDTH 600 0
DWIDTH 5 0
BBX 4 7 1 1
BITMAP
90
60
F0
80
E0
80
F0
ENDCHAR
STARTCHAR U+0115
ENCODING 277
SWIDTH 600 0
DWIDTH 5 0
BBX 4 7 1 1
BITMAP
50
20
60
90
F0
80
70
ENDCHAR
STARTCHAR U+0116
ENCODING 278
SWIDTH 600 0
DWIDTH 5 0
BBX 4 7 1 1
BITMAP
20
00
F0
80
E0
80
F0
ENDCHAR
STARTCHAR U+0117
ENCODING 279
SWIDTH 600 0
DWIDTH 5 0
BBX 4 7 1 1
BITMAP
20
00
60
90
F0
80
70
ENDCHAR
STARTCHAR U+0118
ENCODING 280
SWIDTH 600 0
DWIDTH 5 0
BBX 4 8 1 0
BITMAP
F0
80
E0
80
80
F0
20
30
ENDCHAR
STARTCHAR U+0119
ENCODING 281
SWIDTH 600 0
DWIDTH 5 0
BBX 4 6 1 0
BITMAP
60
F0
80
70
20
30
ENDCHAR
STARTCHAR U+011A
ENCODING 282
SWIDTH 600 0
DWIDTH 5 0
BBX 4 7 1 1
BITMAP
90
60
F0
80
E0
80
F0
ENDCHAR
STARTCHAR U+011B
ENCODING 283
SWIDTH 600 0
DWIDTH 5 0
BBX 4 7 1 1
BITMAP
50
20
60
90
F0
80
70
ENDCHAR
STARTCHAR U+011C
ENCODING 284
SWIDTH 600 0
DWIDTH 5 0
BBX 4 7 1 1
BITMAP
60
90
70
80
B0
90
70
ENDCHAR
STARTCHAR U+011D
ENCODING 285
SWIDTH 600 0
DWIDTH 5 0
BBX 4 8 1 0
BITMAP
20
50
70
90
90
70
10
60
ENDCHAR
STARTCHAR U+011E
ENCODING 286
SWIDTH 600 0
DWIDTH 5 0
BBX 4 7 1 1
BITMAP
90
60
70
80
B0
90
70
ENDCHAR
STARTCHAR U+011F
ENCODING 287
SWIDTH 600 0
DWIDTH 5 0
BBX 4 8 1 0
BITMAP
50
20
70
90
90
70
10
60
ENDCHAR
STARTCHAR U+0120
ENCODING 288
SWIDTH 600 0
DWIDTH 5 0
BBX 4 7 1 1
BITMAP
20
00
70
80
B0
90
70
ENDCHAR
STARTCHAR U+0121
ENCODING 289
SWIDTH 600 0
DWIDTH 5 0
BBX 4 8 1 0
BITMAP
20
00
70
90
90
70
10
60
ENDCHAR
STARTCHAR U+0122
ENCODING 290
SWIDTH 600 0
DWIDTH 5 0
BBX 4 8 1 0
BITMAP
70
80
80
B0
90
70
20
40
ENDCHAR
STARTCHAR U+0123
ENCODING 291
SWIDTH 600 0
DWIDTH 5 0
BBX 4 8 1 0
BITMAP
60
20
70
90
90
70
10
60
ENDCHAR
STARTCHAR U+0124
ENCODING 292
SWIDTH 600 0
DWIDTH 5 0
BBX 4 7 1 1
BITMAP
60
90
00
90
F0
90
90
ENDCHAR
STARTCHAR U+0125
ENCODING 293
SWIDTH 600 0
DWIDTH 5 0
BBX 4 7 1 1
BITMAP
20
D0
80
E0
90
90
90
ENDCHAR
STARTCHAR U+0126
ENCODING 294
SWIDTH 600 0
DWIDTH 5 0
BBX 4 7 1 1
BITMAP
90
90
F0
90
F0
90
90
ENDCHAR
STARTCHAR U+0127
ENCODING 295
SWIDTH 720 0
DWIDTH 6 0
BBX 5 7 1 1
BITMAP
40
E0
40
70
48
48
48
ENDCHAR
STARTCHAR U+0128
ENCODING 296
SWIDTH 480 0
DWIDTH 4 0
BBX 4 7 1 1
BITMAP
50
A0
70
20
20
20
70
ENDCHAR
STARTCHAR U+0129
ENCODING 297
SWIDTH 600 0
DWIDTH 5 0
BBX 4 7 1 1
BITMAP
50
A0
40
40
40
40
20
ENDCHAR
STARTCHAR U+012A
ENCODING 298
SWIDTH 480 0
DWIDTH 4 0
BBX 3 7 1 1
BITMAP
E0
00
E0
40
40
40
E0
ENDCHAR
STARTCHAR U+012B
ENCODING 299
SWIDTH 480 0
DWIDTH 4 0
BBX 3 7 1 1
BITMAP
E0
00
40
40
40
40
20
ENDCHAR
STARTCHAR U+012C
ENCODING 300
SWIDTH 480 0
DWIDTH 4 0
BBX 3 7 1 1
BITMAP
A0
40
E0
40
40
40
E0
ENDCHAR
STARTCHAR U+012D
ENCODING 301
SWIDTH 480 0
DWIDTH 4 0
BBX 3 7 1 1
BITMAP
A0
40
00
40
40
40
20
ENDCHAR
STARTCHAR U+012E
ENCODING 302
SWIDTH 480 0
DWIDTH 4 0
BBX 3 8 1 0
BITMAP
E0
40
40
40
40
E0
40
60
ENDCHAR
STARTCHAR U+012F
ENCODING 303
SWIDTH 360 0
DWIDTH 3 0
BBX 2 8 1 0
BITMAP
80
00
80
80
80
40
80
C0
ENDCHAR
STARTCHAR U+0130
ENCODING 304
SWIDTH 480 0
DWIDTH 4 0
BBX 3 7 1 1
BITMAP
40
00
E0
40
40
40
E0
ENDCHAR
STARTCHAR U+0131
ENCODING 305
SWIDTH 360 0
DWIDTH 3 0
BBX 2 5 1 1
BITMAP
80
80
80
80
40
ENDCHAR
STARTCHAR U+0132
ENCODING 306
SWIDTH 1080 0
DWIDTH 9 0
BBX 8 7 1 1
BITMAP
E1
41
41
41
49
49
E6
ENDCHAR
STARTCHAR U+0133
ENCODING 307
SWIDTH 720 0
DWIDTH 6 0
BBX 5 8 1 0
BITMAP
88
00
88
88
88
88
A8
10
ENDCHAR
STARTCHAR U+0134
ENCODING 308
SWIDTH 600 0
DWIDTH 5 0
BBX 4 7 1 1
BITMAP
60
90
00
10
10
90
60
ENDCHAR
STARTCHAR U+0135
ENCODING 309
SWIDTH 600 0
DWIDTH 5 0
BBX 4 8 1 0
BITMAP
20
50
00
20
20
20
A0
40
ENDCHAR
STARTCHAR U+0136
ENCODING 310
SWIDTH 600 0
DWIDTH 5 0
BBX 4 8 1 0
BITMAP
90
A0
C0
A0
90
90
20
40
ENDCHAR
STARTCHAR U+0137
ENCODING 311
SWIDTH 600 0
DWIDTH 5 0
BBX 4 8 1 0
BITMAP
80
80
B0
C0
A0
90
20
40
ENDCHAR
STARTCHAR U+0138
ENCODING 312
SWIDTH 600 0
DWIDTH 5 0
BBX 4 5 1 1
BITMAP
90
A0
C0
A0
90
ENDCHAR
STARTCHAR U+0139
ENCODING 313
SWIDTH 600 0
DWIDTH 5 0
BBX 4 7 1 1
BITMAP
20
40
80
80
80
80
F0
ENDCHAR
STARTCHAR U+013A
ENCODING 314
SWIDTH 360 0
DWIDTH 3 0
BBX 2 7 1 1
BITMAP
40
80
00
80
80
80
40
ENDCHAR
STARTCHAR U+013B
ENCODING 315
SWIDTH 600 0
DWIDTH 5 0
BBX 4 8 1 0
BITMAP
80
80
80
80
80
F0
20
40
ENDCHAR
STARTCHAR U+013C
ENCODING 316
SWIDTH 360 0
DWIDTH 3 0
BBX 2 8 1 0
BITMAP
80
80
80
80
80
80
40
80
ENDCHAR
STARTCHAR U+013D
ENCODING 317
SWIDTH 600 0
DWIDTH 5 0
BBX 4 7 1 1
BITMAP
A0
A0
A0
80
80
80
F0
ENDCHAR
STARTCHAR U+013E
ENCODING 318
SWIDTH 480 0
DWIDTH 4 0
BBX 3 7 1 1
BITMAP
A0
A0
A0
80
80
80
40
ENDCHAR
STARTCHAR U+013F
ENCODING 319
SWIDTH 600 0
DWIDTH 5 0
BBX 4 7 1 1
BITMAP
80
80
80
90
80
80
F0
ENDCHAR
STARTCHAR U+0140
ENCODING 320
SWIDTH 480 0
DWIDTH 4 0
BBX 3 7 1 1
BITMAP
80
80
80
A0
80
80
40
ENDCHAR
STARTCHAR U+0141
ENCODING 321
SWIDTH 720 0
DWIDTH 6 0
BBX 5 7 1 1
BITMAP
40
40
60
C0
40
40
78
ENDCHAR
STARTCHAR U+0142
ENCODING 322
SWIDTH 360 0
DWIDTH 3 0
BBX 3 7 0 1
BITMAP
40
40
60
C0
40
40
20
ENDCHAR
STARTCHAR U+0143
ENCODING 323
SWIDTH 600 0
DWIDTH 5 0
BBX 4 7 1 1
BITMAP
20
40
90
D0
B0
90
90
ENDCHAR
STARTCHAR U+0144
ENCODING 324
SWIDTH 600 0
DWIDTH 5 0
BBX 4 7 1 1
BITMAP
20
40
E0
90
90
90
90
ENDCHAR
STARTCHAR U+0145
ENCODING 325
SWIDTH 600 0
DWIDTH 5 0
BBX 4 8 1 0
BITMAP
90
D0
D0
B0
B0
90
20
40
ENDCHAR
STARTCHAR U+0146
ENCODING 326
SWIDTH 600 0
DWIDTH 5 0
BBX 4 6 1 0
BITMAP
E0
90
90
90
20
40
ENDCHAR
STARTCHAR U+0147
ENCODING 327
SWIDTH 600 0
DWIDTH 5 0
BBX 4 7 1 1
BITMAP
90
60
90
D0
B0
90
90
ENDCHAR
STARTCHAR U+0148
ENCODING 328
SWIDTH 600 0
DWIDTH 5 0
BBX 4 7 1 1
BITMAP
A0
40
00
E0
90
90
90
ENDCHAR
STARTCHAR U+0149
ENCODING 329
SWIDTH 840 0
DWIDTH 7 0
BBX 6 7 1 1
BITMAP
80
80
B8
24
24
24
24
ENDCHAR
STARTCHAR U+014A
ENCODING 330
SWIDTH 600 0
DWIDTH 5 0
BBX 4 8 1 0
BITMAP
90
D0
D0
B0
B0
90
10
20
ENDCHAR
STARTCHAR U+014B
ENCODING 331
SWIDTH 600 0
DWIDTH 5 0
BBX 4 6 1 0
BITMAP
E0
90
90
90
10
20
ENDCHAR
STARTCHAR U+014C
ENCODING 332
SWIDTH 600 0
DWIDTH 5 0
BBX 4 7 1 1
BITMAP
F0
00
60
90
90
90
60
ENDCHAR
STARTCHAR U+014D
ENCODING 333
SWIDTH 600 0
DWIDTH 5 0
BBX 4 7 1 1
BITMAP
70
00
60
90
90
90
60
ENDCHAR
STARTCHAR U+014E
ENCODING 334
SWIDTH 600 0
DWIDTH 5 0
BBX 4 7 1 1
BITMAP
90
60
60
90
90
90
60
ENDCHAR
STARTCHAR U+014F
ENCODING 335
SWIDTH 600 0
DWIDTH 5 0
BBX 4 7 1 1
BITMAP
50
20
00
60
90
90
60
ENDCHAR
STARTCHAR U+0150
ENCODING 336
SWIDTH 600 0
DWIDTH 5 0
BBX 4 7 1 1
BITMAP
50
A0
60
90
90
90
60
ENDCHAR
STARTCHAR U+0151
ENCODING 337
SWIDTH 600 0
DWIDTH 5 0
BBX 4 7 1 1
BITMAP
50
A0
00
60
90
90
60
ENDCHAR
STARTCHAR U+0152
ENCODING 338
SWIDTH 960 0
DWIDTH 8 0
BBX 7 7 1 1
BITMAP
7E
90
90
9C
90
90
7E
ENDCHAR
STARTCHAR U+0153
ENCODING 339
SWIDTH 960 0
DWIDTH 8 0
BBX 7 5 1 1
BITMAP
6C
92
9C
90
6C
ENDCHAR
STARTCHAR U+0154
ENCODING 340
SWIDTH 600 0
DWIDTH 5 0
BBX 4 7 1 1
BITMAP
20
40
E0
90
E0
A0
90
ENDCHAR
STARTCHAR U+0155
ENCODING 341
SWIDTH 480 0
DWIDTH 4 0
BBX 3 7 1 1
BITMAP
20
40
A0
C0
80
80
80
ENDCHAR
STARTCHAR U+0156
ENCODING 342
SWIDTH 600 0
DWIDTH 5 0
BBX 4 8 1 0
BITMAP
E0
90
90
E0
A0
90
20
40
ENDCHAR
STARTCHAR U+0157
ENCODING 343
SWIDTH 480 0
DWIDTH 4 0
BBX 3 6 1 0
BITMAP
A0
C0
80
80
40
80
ENDCHAR
STARTCHAR U+0158
ENCODING 344
SWIDTH 600 0
DWIDTH 5 0
BBX 4 7 1 1
BITMAP
90
60
E0
90
E0
A0
90
ENDCHAR
STARTCHAR U+0159
ENCODING 345
SWIDTH 480 0
DWIDTH 4 0
BBX 3 7 1 1
BITMAP
A0
40
A0
C0
80
80
80
ENDCHAR
STARTCHAR U+015A
ENCODING 346
SWIDTH 600 0
DWIDTH 5 0
BBX 4 7 1 1
BITMAP
20
40
70
80
60
10
E0
ENDCHAR
STARTCHAR U+015B
ENCODING 347
SWIDTH 600 0
DWIDTH 5 0
BBX 4 7 1 1
BITMAP
20
40
60
80
60
10
E0
ENDCHAR
STARTCHAR U+015C
ENCODING 348
SWIDTH 600 0
DWIDTH 5 0
BBX 4 7 1 1
BITMAP
60
90
70
80
60
10
E0
ENDCHAR
STARTCHAR U+015D
ENCODING 349
SWIDTH 600 0
DWIDTH 5 0
BBX 4 7 1 1
BITMAP
40
A0
60
80
60
10
E0
ENDCHAR
STARTCHAR U+015E
ENCODING 350
SWIDTH 600 0
DWIDTH 5 0
BBX 4 8 1 0
BITMAP
60
90
40
20
90
60
20
40
ENDCHAR
STARTCHAR U+015F
ENCODING 351
SWIDTH 600 0
DWIDTH 5 0
BBX 4 6 1 0
BITMAP
70
C0
30
E0
20
40
ENDCHAR
STARTCHAR U+0160
ENCODING 352
SWIDTH 600 0
DWIDTH 5 0
BBX 4 7 1 1
BITMAP
90
60
70
80
60
10
E0
ENDCHAR
STARTCHAR U+0161
ENCODING 353
SWIDTH 600 0
DWIDTH 5 0
BBX 4 7 1 1
BITMAP
A0
40
60
80
60
10
E0
ENDCHAR
STARTCHAR U+0162
ENCODING 354
SWIDTH 720 0
DWIDTH 6 0
BBX 5 8 1 0
BITMAP
F8
20
20
20
20
20
10
20
ENDCHAR
STARTCHAR U+0163
ENCODING 355
SWIDTH 480 0
DWIDTH 4 0
BBX 3 8 1 0
BITMAP
40
40
E0
40
40
40
20
C0
ENDCHAR
STARTCHAR U+0164
ENCODING 356
SWIDTH 720 0
DWIDTH 6 0
BBX 5 7 1 1
BITMAP
48
30
F8
20
20
20
20
ENDCHAR
STARTCHAR U+0165
ENCODING 357
SWIDTH 720 0
DWIDTH 6 0
BBX 5 7 1 1
BITMAP
48
48
E8
40
40
40
30
ENDCHAR
STARTCHAR U+0166
ENCODING 358
SWIDTH 720 0
DWIDTH 6 0
BBX 5 7 1 1
BITMAP
F8
20
20
70
20
20
20
ENDCHAR
STARTCHAR U+0167
ENCODING 359
SWIDTH 600 0
DWIDTH 5 0
BBX 4 7 1 1
BITMAP
40
40
E0
40
E0
40
30
ENDCHAR
STARTCHAR U+0168
ENCODING 360
SWIDTH 600 0
DWIDTH 5 0
BBX 4 7 1 1
BITMAP
50
A0
00
90
90
90
60
ENDCHAR
STARTCHAR U+0169
ENCODING 361
SWIDTH 600 0
DWIDTH 5 0
BBX 4 7 1 1
BITMAP
50
A0
00
90
90
90
70
ENDCHAR
STARTCHAR U+016A
ENCODING 362
SWIDTH 600 0
DWIDTH 5 0
BBX 4 7 1 1
BITMAP
F0
00
90
90
90
90
60
ENDCHAR
STARTCHAR U+016B
ENCODING 363
SWIDTH 600 0
DWIDTH 5 0
BBX 4 7 1 1
BITMAP
70
00
90
90
90
90
70
ENDCHAR
STARTCHAR U+016C
ENCODING 364
SWIDTH 600 0
DWIDTH 5 0
BBX 4 7 1 1
BITMAP
90
60
00
90
90
90
60
ENDCHAR
STARTCHAR U+016D
ENCODING 365
SWIDTH 600 0
DWIDTH 5 0
BBX 4 7 1 1
BITMAP
50
20
00
90
90
90
70
ENDCHAR
STARTCHAR U+016E
ENCODING 366
SWIDTH 600 0
DWIDTH 5 0
BBX 4 7 1 1
BITMAP
60
90
60
90
90
90
60
ENDCHAR
STARTCHAR U+016F
ENCODING 367
SWIDTH 600 0
DWIDTH 5 0
BBX 4 7 1 1
BITMAP
60
90
60
90
90
90
70
ENDCHAR
STARTCHAR U+0170
ENCODING 368
SWIDTH 600 0
DWIDTH 5 0
BBX 4 7 1 1
BITMAP
50
A0
00
90
90
90
60
ENDCHAR
STARTCHAR U+0171
ENCODING 369
SWIDTH 600 0
DWIDTH 5 0
BBX 4 7 1 1
BITMAP
50
A0
00
90
90
90
70
ENDCHAR
STARTCHAR U+0172
ENCODING 370
SWIDTH 600 0
DWIDTH 5 0
BBX 4 8 1 0
BITMAP
90
90
90
90
90
60
20
30
ENDCHAR
STARTCHAR U+0173
ENCODING 371
SWIDTH 600 0
DWIDTH 5 0
BBX 4 6 1 0
BITMAP
90
90
90
70
20
30
ENDCHAR
STARTCHAR U+0174
ENCODING 372
SWIDTH 720 0
DWIDTH 6 0
BBX 5 7 1 1
BITMAP
20
50
88
A8
A8
A8
50
ENDCHAR
STARTCHAR U+0175
ENCODING 373
SWIDTH 720 0
DWIDTH 6 0
BBX 5 7 1 1
BITMAP
20
50
00
88
A8
A8
50
ENDCHAR
STARTCHAR U+0176
ENCODING 374
SWIDTH 720 0
DWIDTH 6 0
BBX 5 7 1 1
BITMAP
20
50
88
88
50
20
20
ENDCHAR
STARTCHAR U+0177
ENCODING 375
SWIDTH 600 0
DWIDTH 5 0
BBX 4 8 1 0
BITMAP
20
50
00
90
90
70
10
60
ENDCHAR
STARTCHAR U+0178
ENCODING 376
SWIDTH 720 0
DWIDTH 6 0
BBX 5 7 1 1
BITMAP
50
00
88
88
50
20
20
ENDCHAR
STARTCHAR U+0179
ENCODING 377
SWIDTH 720 0
DWIDTH 6 0
BBX 5 7 1 1
BITMAP
10
20
F8
10
20
40
F8
ENDCHAR
STARTCHAR U+017A
ENCODING 378
SWIDTH 480 0
DWIDTH 4 0
BBX 3 7 1 1
BITMAP
20
40
E0
20
40
80
E0
ENDCHAR
STARTCHAR U+017B
ENCODING 379
SWIDTH 720 0
DWIDTH 6 0
BBX 5 7 1 1
BITMAP
20
00
F8
10
20
40
F8
ENDCHAR
STARTCHAR U+017C
ENCODING 380
SWIDTH 480 0
DWIDTH 4 0
BBX 3 7 1 1
BITMAP
40
00
E0
20
40
80
E0
ENDCHAR
STARTCHAR U+017D
ENCODING 381
SWIDTH 720 0
DWIDTH 6 0
BBX 5 7 1 1
BITMAP
50
20
F8
10
20
40
F8
ENDCHAR
STARTCHAR U+017E
ENCODING 382
SWIDTH 480 0
DWIDTH 4 0
BBX 3 7 1 1
BITMAP
A0
40
E0
20
40
80
E0
ENDCHAR
STARTCHAR U+017F
ENCODING 383
SWIDTH 600 0
DWIDTH 5 0
BBX 4 7 1 1
BITMAP
30
40
C0
40
40
40
40
ENDCHAR
STARTCHAR U+037E
ENCODING 894
SWIDTH 360 0
DWIDTH 3 0
BBX 2 6 1 0
BITMAP
40
00
00
40
40
80
ENDCHAR
STARTCHAR U+0384
ENCODING 900
SWIDTH 360 0
DWIDTH 3 0
BBX 2 2 1 6
BITMAP
40
80
ENDCHAR
STARTCHAR U+0385
ENCODING 901
SWIDTH 480 0
DWIDTH 4 0
BBX 4 2 0 6
BITMAP
10
A0
ENDCHAR
STARTCHAR U+0386
ENCODING 902
SWIDTH 720 0
DWIDTH 6 0
BBX 6 7 0 1
BITMAP
58
A4
24
3C
24
24
24
ENDCHAR
STARTCHAR U+0387
ENCODING 903
SWIDTH 360 0
DWIDTH 3 0
BBX 2 2 1 3
BITMAP
C0
C0
ENDCHAR
STARTCHAR U+0388
ENCODING 904
SWIDTH 720 0
DWIDTH 6 0
BBX 6 7 0 1
BITMAP
7C
A0
20
38
20
20
3C
ENDCHAR
STARTCHAR U+0389
ENCODING 905
SWIDTH 720 0
DWIDTH 6 0
BBX 6 7 0 1
BITMAP
64
A4
24
3C
24
24
24
ENDCHAR
STARTCHAR U+038A
ENCODING 906
SWIDTH 600 0
DWIDTH 5 0
BBX 5 7 0 1
BITMAP
58
90
10
10
10
10
38
ENDCHAR
STARTCHAR U+038C
ENCODING 908
SWIDTH 720 0
DWIDTH 6 0
BBX 6 7 0 1
BITMAP
58
A4
24
24
24
24
18
ENDCHAR
STARTCHAR U+038E
ENCODING 910
SWIDTH 840 0
DWIDTH 7 0
BBX 7 7 0 1
BITMAP
62
A2
22
14
08
08
08
ENDCHAR
STARTCHAR U+038F
ENCODING 911
SWIDTH 840 0
DWIDTH 7 0
BBX 7 7 0 1
BITMAP
5C
A2
22
22
22
14
36
ENDCHAR
STARTCHAR U+0390
ENCODING 912
SWIDTH 600 0
DWIDTH 5 0
BBX 4 7 1 1
BITMAP
10
A0
00
40
40
40
20
ENDCHAR
STARTCHAR U+0391
ENCODING 913
SWIDTH 600 0
DWIDTH 5 0
BBX 4 7 1 1
BITMAP
60
90
90
F0
90
90
90
ENDCHAR
STARTCHAR U+0392
ENCODING 914
SWIDTH 600 0
DWIDTH 5 0
BBX 4 7 1 1
BITMAP
E0
90
90
E0
90
90
E0
ENDCHAR
STARTCHAR U+0393
ENCODING 915
SWIDTH 600 0
DWIDTH 5 0
BBX 4 7 1 1
BITMAP
F0
80
80
80
80
80
80
ENDCHAR
STARTCHAR U+0394
ENCODING 916
SWIDTH 720 0
DWIDTH 6 0
BBX 5 7 1 1
BITMAP
20
20
50
50
88
88
F8
ENDCHAR
STARTCHAR U+0395
ENCODING 917
SWIDTH 600 0
DWIDTH 5 0
BBX 4 7 1 1
BITMAP
F0
80
80
E0
80
80
F0
ENDCHAR
STARTCHAR U+0396
ENCODING 918
SWIDTH 720 0
DWIDTH 6 0
BBX 5 7 1 1
BITMAP
F8
08
10
20
40
80
F8
ENDCHAR
STARTCHAR U+0397
ENCODING 919
SWIDTH 600 0
DWIDTH 5 0
BBX 4 7 1 1
BITMAP
90
90
90
F0
90
90
90
ENDCHAR
STARTCHAR U+0398
ENCODING 920
SWIDTH 720 0
DWIDTH 6 0
BBX 5 7 1 1
BITMAP
70
88
88
F8
88
88
70
ENDCHAR
STARTCHAR U+0399
ENCODING 921
SWIDTH 480 0
DWIDTH 4 0
BBX 3 7 1 1
BITMAP
E0
40
40
40
40
40
E0
ENDCHAR
STARTCHAR U+039A
ENCODING 922
SWIDTH 600 0
DWIDTH 5 0
BBX 4 7 1 1
BITMAP
90
90
A0
C0
A0
90
90
ENDCHAR
STARTCHAR U+039B
ENCODING 923
SWIDTH 720 0
DWIDTH 6 0
BBX 5 7 1 1
BITMAP
20
20
50
50
88
88
88
ENDCHAR
STARTCHAR U+039C
ENCODING 924
SWIDTH 720 0
DWIDTH 6 0
BBX 5 7 1 1
BITMAP
88
D8
D8
A8
A8
88
88
ENDCHAR
STARTCHAR U+039D
ENCODING 925
SWIDTH 600 0
DWIDTH 5 0
BBX 4 7 1 1
BITMAP
90
D0
D0
B0
B0
90
90
ENDCHAR
STARTCHAR U+039E
ENCODING 926
SWIDTH 600 0
DWIDTH 5 0
BBX 4 7 1 1
BITMAP
F0
90
00
60
00
90
F0
ENDCHAR
STARTCHAR U+039F
ENCODING 927
SWIDTH 600 0
DWIDTH 5 0
BBX 4 7 1 1
BITMAP
60
90
90
90
90
90
60
ENDCHAR
STARTCHAR U+03A0
ENCODING 928
SWIDTH 600 0
DWIDTH 5 0
BBX 4 7 1 1
BITMAP
F0
90
90
90
90
90
90
ENDCHAR
STARTCHAR U+03A1
ENCODING 929
SWIDTH 600 0
DWIDTH 5 0
BBX 4 7 1 1
BITMAP
E0
90
90
E0
80
80
80
ENDCHAR
STARTCHAR U+03A3
ENCODING 931
SWIDTH 600 0
DWIDTH 5 0
BBX 4 7 1 1
BITMAP
F0
80
40
20
40
80
F0
ENDCHAR
STARTCHAR U+03A4
ENCODING 932
SWIDTH 720 0
DWIDTH 6 0
BBX 5 7 1 1
BITMAP
F8
20
20
20
20
20
20
ENDCHAR
STARTCHAR U+03A5
ENCODING 933
SWIDTH 720 0
DWIDTH 6 0
BBX 5 7 1 1
BITMAP
88
88
88
50
20
20
20
ENDCHAR
STARTCHAR U+03A6
ENCODING 934
SWIDTH 720 0
DWIDTH 6 0
BBX 5 7 1 1
BITMAP
20
70
A8
A8
A8
70
20
ENDCHAR
STARTCHAR U+03A7
ENCODING 935
SWIDTH 720 0
DWIDTH 6 0
BBX 5 7 1 1
BITMAP
88
88
50
20
50
88
88
ENDCHAR
STARTCHAR U+03A8
ENCODING 936
SWIDTH 720 0
DWIDTH 6 0
BBX 5 7 1 1
BITMAP
A8
A8
A8
70
20
20
20
ENDCHAR
STARTCHAR U+03A9
ENCODING 937
SWIDTH 720 0
DWIDTH 6 0
BBX 5 7 1 1
BITMAP
70
88
88
88
88
50
D8
ENDCHAR
STARTCHAR U+03AA
ENCODING 938
SWIDTH 480 0
DWIDTH 4 0
BBX 3 7 1 1
BITMAP
A0
00
E0
40
40
40
E0
ENDCHAR
STARTCHAR U+03AB
ENCODING 939
SWIDTH 720 0
DWIDTH 6 0
BBX 5 7 1 1
BITMAP
50
00
88
88
50
20
20
ENDCHAR
STARTCHAR U+03AC
ENCODING 940
SWIDTH 600 0
DWIDTH 5 0
BBX 4 7 1 1
BITMAP
20
40
50
A0
A0
A0
50
ENDCHAR
STARTCHAR U+03AD
ENCODING 941
SWIDTH 600 0
DWIDTH 5 0
BBX 4 7 1 1
BITMAP
20
40
70
80
60
80
70
ENDCHAR
STARTCHAR U+03AE
ENCODING 942
SWIDTH 600 0
DWIDTH 5 0
BBX 4 8 1 0
BITMAP
20
40
E0
90
90
90
90
10
ENDCHAR
STARTCHAR U+03AF
ENCODING 943
SWIDTH 360 0
DWIDTH 3 0
BBX 2 7 1 1
BITMAP
40
80
00
80
80
80
40
ENDCHAR
STARTCHAR U+03B0
ENCODING 944
SWIDTH 600 0
DWIDTH 5 0
BBX 4 7 1 1
BITMAP
10
A0
00
90
90
90
60
ENDCHAR
STARTCHAR U+03B1
ENCODING 945
SWIDTH 600 0
DWIDTH 5 0
BBX 4 5 1 1
BITMAP
50
A0
A0
A0
50
ENDCHAR
STARTCHAR U+03B2
ENCODING 946
SWIDTH 600 0
DWIDTH 5 0
BBX 4 8 1 0
BITMAP
60
90
90
A0
90
90
A0
80
ENDCHAR
STARTCHAR U+03B3
ENCODING 947
SWIDTH 600 0
DWIDTH 5 0
BBX 4 6 1 0
BITMAP
90
50
60
20
40
40
ENDCHAR
STARTCHAR U+03B4
ENCODING 948
SWIDTH 600 0
DWIDTH 5 0
BBX 4 7 1 1
BITMAP
70
80
60
90
90
90
60
ENDCHAR
STARTCHAR U+03B5
ENCODING 949
SWIDTH 600 0
DWIDTH 5 0
BBX 4 5 1 1
BITMAP
70
80
60
80
70
ENDCHAR
STARTCHAR U+03B6
ENCODING 950
SWIDTH 600 0
DWIDTH 5 0
BBX 4 8 1 0
BITMAP
F0
60
80
80
80
60
10
20
ENDCHAR
STARTCHAR U+03B7
ENCODING 951
SWIDTH 600 0
DWIDTH 5 0
BBX 4 6 1 0
BITMAP
E0
90
90
90
90
10
ENDCHAR
STARTCHAR U+03B8
ENCODING 952
SWIDTH 600 0
DWIDTH 5 0
BBX 4 7 1 1
BITMAP
60
90
90
F0
90
90
60
ENDCHAR
STARTCHAR U+03B9
ENCODING 953
SWIDTH 360 0
DWIDTH 3 0
BBX 2 5 1 1
BITMAP
80
80
80
80
40
ENDCHAR
STARTCHAR U+03BA
ENCODING 954
SWIDTH 600 0
DWIDTH 5 0
BBX 4 5 1 1
BITMAP
90
A0
C0
A0
90
ENDCHAR
STARTCHAR U+03BB
ENCODING 955
SWIDTH 600 0
DWIDTH 5 0
BBX 4 7 1 1
BITMAP
40
40
20
60
50
90
90
ENDCHAR
STARTCHAR U+03BC
ENCODING 956
SWIDTH 600 0
DWIDTH 5 0
BBX 4 6 1 0
BITMAP
90
90
90
D0
A0
80
ENDCHAR
STARTCHAR U+03BD
ENCODING 957
SWIDTH 720 0
DWIDTH 6 0
BBX 5 5 1 1
BITMAP
88
88
50
50
20
ENDCHAR
STARTCHAR U+03BE
ENCODING 958
SWIDTH 600 0
DWIDTH 5 0
BBX 4 8 1 0
BITMAP
F0
60
80
60
80
60
10
20
ENDCHAR
STARTCHAR U+03BF
ENCODING 959
SWIDTH 600 0
DWIDTH 5 0
BBX 4 5 1 1
BITMAP
60
90
90
90
60
ENDCHAR
STARTCHAR U+03C0
ENCODING 960
SWIDTH 720 0
DWIDTH 6 0
BBX 5 5 1 1
BITMAP
F8
50
50
50
48
ENDCHAR
STARTCHAR U+03C1
ENCODING 961
SWIDTH 600 0
DWIDTH 5 0
BBX 5 6 0 0
BITMAP
30
48
48
68
50
40
ENDCHAR
STARTCHAR U+03C2
ENCODING 962
SWIDTH 480 0
DWIDTH 4 0
BBX 3 6 1 0
BITMAP
60
80
80
60
20
40
ENDCHAR
STARTCHAR U+03C3
ENCODING 963
SWIDTH 600 0
DWIDTH 5 0
BBX 4 5 1 1
BITMAP
70
A0
90
90
60
ENDCHAR
STARTCHAR U+03C4
ENCODING 964
SWIDTH 720 0
DWIDTH 6 0
BBX 5 5 1 1
BITMAP
F8
20
20
20
10
ENDCHAR
STARTCHAR U+03C5
ENCODING 965
SWIDTH 600 0
DWIDTH 5 0
BBX 4 5 1 1
BITMAP
90
90
90
90
60
ENDCHAR
STARTCHAR U+03C6
ENCODING 966
SWIDTH 720 0
DWIDTH 6 0
BBX 5 8 1 0
BITMAP
20
20
70
A8
A8
A8
70
20
ENDCHAR
STARTCHAR U+03C7
ENCODING 967
SWIDTH 600 0
DWIDTH 5 0
BBX 4 7 1 0
BITMAP
90
50
20
60
40
A0
90
ENDCHAR
STARTCHAR U+03C8
ENCODING 968
SWIDTH 720 0
DWIDTH 6 0
BBX 5 6 1 0
BITMAP
A8
A8
A8
70
20
20
ENDCHAR
STARTCHAR U+03C9
ENCODING 969
SWIDTH 720 0
DWIDTH 6 0
BBX 5 5 1 1
BITMAP
50
88
A8
A8
50
ENDCHAR
STARTCHAR U+03CA
ENCODING 970
SWIDTH 360 0
DWIDTH 3 0
BBX 3 7 1 1
BITMAP
A0
00
40
40
40
40
20
ENDCHAR
STARTCHAR U+03CB
ENCODING 971
SWIDTH 600 0
DWIDTH 5 0
BBX 4 7 1 1
BITMAP
A0
00
90
90
90
90
60
ENDCHAR
STARTCHAR U+03CC
ENCODING 972
SWIDTH 600 0
DWIDTH 5 0
BBX 4 7 1 1
BITMAP
20
40
60
90
90
90
60
ENDCHAR
STARTCHAR U+03CD
ENCODING 973
SWIDTH 600 0
DWIDTH 5 0
BBX 4 7 1 1
BITMAP
20
40
90
90
90
90
60
ENDCHAR
STARTCHAR U+03CE
ENCODING 974
SWIDTH 720 0
DWIDTH 6 0
BBX 5 7 1 1
BITMAP
10
20
50
88
A8
A8
50
ENDCHAR
STARTCHAR U+03F3
ENCODING 1011
SWIDTH 480 0
DWIDTH 4 0
BBX 3 8 1 0
BITMAP
20
00
20
20
20
20
A0
40
ENDCHAR
STARTCHAR U+0400
ENCODING 1024
SWIDTH 600 0
DWIDTH 5 0
BBX 4 7 1 1
BITMAP
40
20
F0
80
E0
80
F0
ENDCHAR
STARTCHAR U+0401
ENCODING 1025
SWIDTH 600 0
DWIDTH 5 0
BBX 4 7 1 1
BITMAP
90
00
F0
80
E0
80
F0
ENDCHAR
STARTCHAR U+0402
ENCODING 1026
SWIDTH 720 0
DWIDTH 6 0
BBX 5 7 1 1
BITMAP
F0
40
40
70
48
48
70
ENDCHAR
STARTCHAR U+0403
ENCODING 1027
SWIDTH 600 0
DWIDTH 5 0
BBX 4 7 1 1
BITMAP
20
40
F0
80
80
80
80
ENDCHAR
STARTCHAR U+0404
ENCODING 1028
SWIDTH 600 0
DWIDTH 5 0
BBX 4 7 1 1
BITMAP
60
90
80
E0
80
90
60
ENDCHAR
STARTCHAR U+0405
ENCODING 1029
SWIDTH 600 0
DWIDTH 5 0
BBX 4 7 1 1
BITMAP
60
90
80
60
10
90
60
ENDCHAR
STARTCHAR U+0406
ENCODING 1030
SWIDTH 480 0
DWIDTH 4 0
BBX 3 7 1 1
BITMAP
E0
40
40
40
40
40
E0
ENDCHAR
STARTCHAR U+0407
ENCODING 1031
SWIDTH 480 0
DWIDTH 4 0
BBX 3 7 1 1
BITMAP
A0
00
E0
40
40
40
E0
ENDCHAR
STARTCHAR U+0408
ENCODING 1032
SWIDTH 600 0
DWIDTH 5 0
BBX 4 7 1 1
BITMAP
10
10
10
10
90
90
60
ENDCHAR
STARTCHAR U+0409
ENCODING 1033
SWIDTH 840 0
DWIDTH 7 0
BBX 6 7 1 1
BITMAP
70
50
50
58
54
54
98
ENDCHAR
STARTCHAR U+040A
ENCODING 1034
SWIDTH 840 0
DWIDTH 7 0
BBX 6 7 1 1
BITMAP
90
90
90
F8
94
94
98
ENDCHAR
STARTCHAR U+040B
ENCODING 1035
SWIDTH 720 0
DWIDTH 6 0
BBX 5 7 1 1
BITMAP
F0
40
40
70
48
48
48
ENDCHAR
STARTCHAR U+040C
ENCODING 1036
SWIDTH 600 0
DWIDTH 5 0
BBX 4 7 1 1
BITMAP
20
40
90
A0
C0
A0
90
ENDCHAR
STARTCHAR U+040D
ENCODING 1037
SWIDTH 600 0
DWIDTH 5 0
BBX 4 7 1 1
BITMAP
40
20
90
90
B0
D0
90
ENDCHAR
STARTCHAR U+040E
ENCODING 1038
SWIDTH 600 0
DWIDTH 5 0
BBX 4 7 1 1
BITMAP
90
60
90
90
70
10
60
ENDCHAR
STARTCHAR U+040F
ENCODING 1039
SWIDTH 600 0
DWIDTH 5 0
BBX 5 8 0 0
BITMAP
48
48
48
48
48
48
78
10
ENDCHAR
STARTCHAR U+0410
ENCODING 1040
SWIDTH 600 0
DWIDTH 5 0
BBX 4 7 1 1
BITMAP
60
90
90
F0
90
90
90
ENDCHAR
STARTCHAR U+0411
ENCODING 1041
SWIDTH 600 0
DWIDTH 5 0
BBX 4 7 1 1
BITMAP
F0
80
80
E0
90
90
E0
ENDCHAR
STARTCHAR U+0412
ENCODING 1042
SWIDTH 600 0
DWIDTH 5 0
BBX 4 7 1 1
BITMAP
E0
90
90
E0
90
90
E0
ENDCHAR
STARTCHAR U+0413
ENCODING 1043
SWIDTH 600 0
DWIDTH 5 0
BBX 4 7 1 1
BITMAP
F0
80
80
80
80
80
80
ENDCHAR
STARTCHAR U+0414
ENCODING 1044
SWIDTH 720 0
DWIDTH 6 0
BBX 5 8 1 0
BITMAP
38
48
48
48
48
48
F8
88
ENDCHAR
STARTCHAR U+0415
ENCODING 1045
SWIDTH 600 0
DWIDTH 5 0
BBX 4 7 1 1
BITMAP
F0
80
80
E0
80
80
F0
ENDCHAR
STARTCHAR U+0416
ENCODING 1046
SWIDTH 960 0
DWIDTH 8 0
BBX 7 7 1 1
BITMAP
92
92
54
38
54
92
92
ENDCHAR
STARTCHAR U+0417
ENCODING 1047
SWIDTH 600 0
DWIDTH 5 0
BBX 4 7 1 1
BITMAP
60
90
10
60
10
90
60
ENDCHAR
STARTCHAR U+0418
ENCODING 1048
SWIDTH 600 0
DWIDTH 5 0
BBX 4 7 1 1
BITMAP
90
90
B0
B0
D0
D0
90
ENDCHAR
STARTCHAR U+0419
ENCODING 1049
SWIDTH 600 0
DWIDTH 5 0
BBX 4 7 1 1
BITMAP
90
60
90
90
B0
D0
90
ENDCHAR
STARTCHAR U+041A
ENCODING 1050
SWIDTH 600 0
DWIDTH 5 0
BBX 4 7 1 1
BITMAP
90
90
A0
C0
A0
90
90
ENDCHAR
STARTCHAR U+041B
ENCODING 1051
SWIDTH 600 0
DWIDTH 5 0
BBX 4 7 1 1
BITMAP
70
50
50
50
50
50
90
ENDCHAR
STARTCHAR U+041C
ENCODING 1052
SWIDTH 720 0
DWIDTH 6 0
BBX 5 7 1 1
BITMAP
88
D8
D8
A8
A8
88
88
ENDCHAR
STARTCHAR U+041D
ENCODING 1053
SWIDTH 600 0
DWIDTH 5 0
BBX 4 7 1 1
BITMAP
90
90
90
F0
90
90
90
ENDCHAR
STARTCHAR U+041E
ENCODING 1054
SWIDTH 600 0
DWIDTH 5 0
BBX 4 7 1 1
BITMAP
60
90
90
90
90
90
60
ENDCHAR
STARTCHAR U+041F
ENCODING 1055
SWIDTH 600 0
DWIDTH 5 0
BBX 4 7 1 1
BITMAP
F0
90
90
90
90
90
90
ENDCHAR
STARTCHAR U+0420
ENCODING 1056
SWIDTH 600 0
DWIDTH 5 0
BBX 4 7 1 1
BITMAP
E0
90
90
E0
80
80
80
ENDCHAR
STARTCHAR U+0421
ENCODING 1057
SWIDTH 600 0
DWIDTH 5 0
BBX 4 7 1 1
BITMAP
60
90
80
80
80
90
60
ENDCHAR
STARTCHAR U+0422
ENCODING 1058
SWIDTH 720 0
DWIDTH 6 0
BBX 5 7 1 1
BITMAP
F8
20
20
20
20
20
20
ENDCHAR
STARTCHAR U+0423
ENCODING 1059
SWIDTH 600 0
DWIDTH 5 0
BBX 4 7 1 1
BITMAP
90
90
90
70
10
10
60
ENDCHAR
STARTCHAR U+0424
ENCODING 1060
SWIDTH 720 0
DWIDTH 6 0
BBX 5 7 1 1
BITMAP
20
70
A8
A8
A8
70
20
ENDCHAR
STARTCHAR U+0425
ENCODING 1061
SWIDTH 720 0
DWIDTH 6 0
BBX 5 7 1 1
BITMAP
88
88
50
20
50
88
88
ENDCHAR
STARTCHAR U+0426
ENCODING 1062
SWIDTH 600 0
DWIDTH 5 0
BBX 4 8 1 0
BITMAP
90
90
90
90
90
90
F0
10
ENDCHAR
STARTCHAR U+0427
ENCODING 1063
SWIDTH 600 0
DWIDTH 5 0
BBX 4 7 1 1
BITMAP
90
90
90
70
10
10
10
ENDCHAR
STARTCHAR U+0428
ENCODING 1064
SWIDTH 960 0
DWIDTH 8 0
BBX 7 7 1 1
BITMAP
92
92
92
92
92
92
FE
ENDCHAR
STARTCHAR U+0429
ENCODING 1065
SWIDTH 960 0
DWIDTH 8 0
BBX 7 8 1 0
BITMAP
92
92
92
92
92
92
FE
02
ENDCHAR
STARTCHAR U+042A
ENCODING 1066
SWIDTH 720 0
DWIDTH 6 0
BBX 5 7 1 1
BITMAP
C0
40
70
48
48
48
70
ENDCHAR
STARTCHAR U+042B
ENCODING 1067
SWIDTH 840 0
DWIDTH 7 0
BBX 6 7 1 1
BITMAP
84
84
E4
94
94
94
E4
ENDCHAR
STARTCHAR U+042C
ENCODING 1068
SWIDTH 600 0
DWIDTH 5 0
BBX 4 7 1 1
BITMAP
80
80
E0
90
90
90
E0
ENDCHAR
STARTCHAR U+042D
ENCODING 1069
SWIDTH 600 0
DWIDTH 5 0
BBX 4 7 1 1
BITMAP
60
90
10
70
10
90
60
ENDCHAR
STARTCHAR U+042E
ENCODING 1070
SWIDTH 840 0
DWIDTH 7 0
BBX 6 7 1 1
BITMAP
98
A4
A4
E4
A4
A4
98
ENDCHAR
STARTCHAR U+042F
ENCODING 1071
SWIDTH 600 0
DWIDTH 5 0
BBX 4 7 1 1
BITMAP
70
90
90
70
50
90
90
ENDCHAR
STARTCHAR U+0430
ENCODING 1072
SWIDTH 600 0
DWIDTH 5 0
BBX 4 5 1 1
BITMAP
60
10
70
90
70
ENDCHAR
STARTCHAR U+0431
ENCODING 1073
SWIDTH 600 0
DWIDTH 5 0
BBX 4 7 1 1
BITMAP
70
80
A0
D0
90
90
60
ENDCHAR
STARTCHAR U+0432
ENCODING 1074
SWIDTH 600 0
DWIDTH 5 0
BBX 4 5 1 1
BITMAP
E0
90
E0
90
E0
ENDCHAR
STARTCHAR U+0433
ENCODING 1075
SWIDTH 480 0
DWIDTH 4 0
BBX 3 5 1 1
BITMAP
E0
80
80
80
80
ENDCHAR
STARTCHAR U+0434
ENCODING 1076
SWIDTH 600 0
DWIDTH 5 0
BBX 4 6 1 0
BITMAP
30
50
50
50
F0
90
ENDCHAR
STARTCHAR U+0435
ENCODING 1077
SWIDTH 600 0
DWIDTH 5 0
BBX 4 5 1 1
BITMAP
60
90
F0
80
70
ENDCHAR
STARTCHAR U+0436
ENCODING 1078
SWIDTH 720 0
DWIDTH 6 0
BBX 5 5 1 1
BITMAP
A8
A8
70
A8
A8
ENDCHAR
STARTCHAR U+0437
ENCODING 1079
SWIDTH 600 0
DWIDTH 5 0
BBX 4 5 1 1
BITMAP
E0
10
60
10
E0
ENDCHAR
STARTCHAR U+0438
ENCODING 1080
SWIDTH 600 0
DWIDTH 5 0
BBX 4 5 1 1
BITMAP
90
90
B0
D0
90
ENDCHAR
STARTCHAR U+0439
ENCODING 1081
SWIDTH 600 0
DWIDTH 5 0
BBX 4 7 1 1
BITMAP
50
20
00
90
B0
D0
90
ENDCHAR
STARTCHAR U+043A
ENCODING 1082
SWIDTH 600 0
DWIDTH 5 0
BBX 4 5 1 1
BITMAP
90
A0
C0
A0
90
ENDCHAR
STARTCHAR U+043B
ENCODING 1083
SWIDTH 600 0
DWIDTH 5 0
BBX 4 5 1 1
BITMAP
70
50
50
50
90
ENDCHAR
STARTCHAR U+043C
ENCODING 1084
SWIDTH 720 0
DWIDTH 6 0
BBX 5 5 1 1
BITMAP
88
D8
D8
A8
A8
ENDCHAR
STARTCHAR U+043D
ENCODING 1085
SWIDTH 600 0
DWIDTH 5 0
BBX 4 5 1 1
BITMAP
90
90
F0
90
90
ENDCHAR
STARTCHAR U+043E
ENCODING 1086
SWIDTH 600 0
DWIDTH 5 0
BBX 4 5 1 1
BITMAP
60
90
90
90
60
ENDCHAR
STARTCHAR U+043F
ENCODING 1087
SWIDTH 600 0
DWIDTH 5 0
BBX 4 5 1 1
BITMAP
F0
90
90
90
90
ENDCHAR
STARTCHAR U+0440
ENCODING 1088
SWIDTH 600 0
DWIDTH 5 0
BBX 4 6 1 0
BITMAP
E0
90
90
E0
80
80
ENDCHAR
STARTCHAR U+0441
ENCODING 1089
SWIDTH 480 0
DWIDTH 4 0
BBX 3 5 1 1
BITMAP
60
80
80
80
60
ENDCHAR
STARTCHAR U+0442
ENCODING 1090
SWIDTH 720 0
DWIDTH 6 0
BBX 5 5 1 1
BITMAP
F8
20
20
20
20
ENDCHAR
STARTCHAR U+0443
ENCODING 1091
SWIDTH 600 0
DWIDTH 5 0
BBX 4 6 1 0
BITMAP
90
90
90
70
10
60
ENDCHAR
STARTCHAR U+0444
ENCODING 1092
SWIDTH 720 0
DWIDTH 6 0
BBX 5 8 1 0
BITMAP
20
20
70
A8
A8
A8
70
20
ENDCHAR
STARTCHAR U+0445
ENCODING 1093
SWIDTH 480 0
DWIDTH 4 0
BBX 3 5 1 1
BITMAP
A0
A0
40
A0
A0
ENDCHAR
STARTCHAR U+0446
ENCODING 1094
SWIDTH 600 0
DWIDTH 5 0
BBX 4 6 1 0
BITMAP
90
90
90
90
F0
10
ENDCHAR
STARTCHAR U+0447
ENCODING 1095
SWIDTH 600 0
DWIDTH 5 0
BBX 4 5 1 1
BITMAP
90
90
70
10
10
ENDCHAR
STARTCHAR U+0448
ENCODING 1096
SWIDTH 720 0
DWIDTH 6 0
BBX 5 5 1 1
BITMAP
A8
A8
A8
A8
F8
ENDCHAR
STARTCHAR U+0449
ENCODING 1097
SWIDTH 720 0
DWIDTH 6 0
BBX 5 6 1 0
BITMAP
A8
A8
A8
A8
F8
08
ENDCHAR
STARTCHAR U+044A
ENCODING 1098
SWIDTH 600 0
DWIDTH 5 0
BBX 4 5 1 1
BITMAP
C0
60
50
50
60
ENDCHAR
STARTCHAR U+044B
ENCODING 1099
SWIDTH 720 0
DWIDTH 6 0
BBX 5 5 1 1
BITMAP
88
C8
A8
A8
C8
ENDCHAR
STARTCHAR U+044C
ENCODING 1100
SWIDTH 480 0
DWIDTH 4 0
BBX 3 5 1 1
BITMAP
80
C0
A0
A0
C0
ENDCHAR
STARTCHAR U+044D
ENCODING 1101
SWIDTH 600 0
DWIDTH 5 0
BBX 4 5 1 1
BITMAP
E0
10
70
10
E0
ENDCHAR
STARTCHAR U+044E
ENCODING 1102
SWIDTH 720 0
DWIDTH 6 0
BBX 5 5 1 1
BITMAP
90
A8
E8
A8
90
ENDCHAR
STARTCHAR U+044F
ENCODING 1103
SWIDTH 600 0
DWIDTH 5 0
BBX 4 5 1 1
BITMAP
70
90
70
50
90
ENDCHAR
STARTCHAR U+0450
ENCODING 1104
SWIDTH 600 0
DWIDTH 5 0
BBX 4 7 1 1
BITMAP
40
20
60
90
F0
80
70
ENDCHAR
STARTCHAR U+0451
ENCODING 1105
SWIDTH 600 0
DWIDTH 5 0
BBX 4 7 1 1
BITMAP
90
00
60
90
F0
80
70
ENDCHAR
STARTCHAR U+0452
ENCODING 1106
SWIDTH 720 0
DWIDTH 6 0
BBX 5 8 1 0
BITMAP
40
E0
40
70
48
48
48
10
ENDCHAR
STARTCHAR U+0453
ENCODING 1107
SWIDTH 480 0
DWIDTH 4 0
BBX 3 7 1 1
BITMAP
20
40
E0
80
80
80
80
ENDCHAR
STARTCHAR U+0454
ENCODING 1108
SWIDTH 600 0
DWIDTH 5 0
BBX 4 5 1 1
BITMAP
70
80
E0
80
70
ENDCHAR
STARTCHAR U+0455
ENCODING 1109
SWIDTH 600 0
DWIDTH 5 0
BBX 4 5 1 1
BITMAP
60
80
60
10
E0
ENDCHAR
STARTCHAR U+0456
ENCODING 1110
SWIDTH 360 0
DWIDTH 3 0
BBX 2 7 1 1
BITMAP
80
00
80
80
80
80
40
ENDCHAR
STARTCHAR U+0457
ENCODING 1111
SWIDTH 480 0
DWIDTH 4 0
BBX 3 7 1 1
BITMAP
A0
00
40
40
40
40
20
ENDCHAR
STARTCHAR U+0458
ENCODING 1112
SWIDTH 480 0
DWIDTH 4 0
BBX 3 8 1 0
BITMAP
20
00
20
20
20
20
A0
40
ENDCHAR
STARTCHAR U+0459
ENCODING 1113
SWIDTH 840 0
DWIDTH 7 0
BBX 6 5 1 1
BITMAP
70
58
54
54
98
ENDCHAR
STARTCHAR U+045A
ENCODING 1114
SWIDTH 840 0
DWIDTH 7 0
BBX 6 5 1 1
BITMAP
90
98
F4
94
98
ENDCHAR
STARTCHAR U+045B
ENCODING 1115
SWIDTH 720 0
DWIDTH 6 0
BBX 5 7 1 1
BITMAP
40
E0
40
70
48
48
48
ENDCHAR
STARTCHAR U+045C
ENCODING 1116
SWIDTH 600 0
DWIDTH 5 0
BBX 4 7 1 1
BITMAP
20
40
90
A0
C0
A0
90
ENDCHAR
STARTCHAR U+045D
ENCODING 1117
SWIDTH 600 0
DWIDTH 5 0
BBX 4 7 1 1
BITMAP
40
20
00
90
B0
D0
90
ENDCHAR
STARTCHAR U+045E
ENCODING 1118
SWIDTH 600 0
DWIDTH 5 0
BBX 4 8 1 0
BITMAP
50
20
90
90
90
70
10
60
ENDCHAR
STARTCHAR U+045F
ENCODING 1119
SWIDTH 600 0
DWIDTH 5 0
BBX 4 6 1 0
BITMAP
90
90
90
90
F0
20
ENDCHAR
ENDFONT
